<svg version="1.1" xmlns="http://www.w3.org/2000/svg" viewBox="0 0 526.2667163281257 627.6474875254095" width="526.2667163281257" height="627.6474875254095" filter="invert(93%) hue-rotate(180deg)">
  <!-- svg-source:excalidraw -->
  
  <defs>
    <style>
      @font-face {
        font-family: "Virgil";
        src: url("https://excalidraw.com/Virgil.woff2");
      }
      @font-face {
        font-family: "Cascadia";
        src: url("https://excalidraw.com/Cascadia.woff2");
      }
    </style>
  </defs>
  <g transform="translate(30.193877308365927 38.91496253974043) rotate(0 66.5 12.5)"><text x="0" y="18" font-family="Virgil, Segoe UI Emoji" font-size="20px" fill="#000000" text-anchor="start" style="white-space: pre;" direction="ltr">app (sources)</text></g><g stroke-linecap="round" transform="translate(10.55289449855411 22.41105628974043) rotate(0 86.01437750941227 27.7890625)"><path d="M13.89 0 M13.89 0 C64.99 0.69, 112.57 2.14, 158.13 0 M13.89 0 C56.58 2.1, 97 0.89, 158.13 0 M158.13 0 C165.98 -2.08, 175.32 4.95, 172.03 13.89 M158.13 0 C167.63 -1.5, 167.61 6.94, 172.03 13.89 M172.03 13.89 C170.44 24.03, 171.59 32.46, 172.03 41.68 M172.03 13.89 C172.1 19.45, 170.91 27.96, 172.03 41.68 M172.03 41.68 C168.72 49.68, 169.32 54.68, 158.13 55.58 M172.03 41.68 C175.08 47.49, 169.1 53.5, 158.13 55.58 M158.13 55.58 C122.72 58.38, 88.23 54.66, 13.89 55.58 M158.13 55.58 C125.72 59.15, 95.11 58.13, 13.89 55.58 M13.89 55.58 C4.66 53.2, 3.9 51.16, 0 41.68 M13.89 55.58 C1.15 59.79, -4.33 53.17, 0 41.68 M0 41.68 C2.8 33.48, 1.01 21.33, 0 13.89 M0 41.68 C1.06 32.49, 1.88 22.58, 0 13.89 M0 13.89 C-2.13 8.32, 6.07 1.86, 13.89 0 M0 13.89 C3.72 8.21, 6.03 1.12, 13.89 0" stroke="#000000" stroke-width="1" fill="none"></path></g><g transform="translate(58.609524725639744 159.42568522553233) rotate(0 40.5 12.5)"><text x="0" y="18" font-family="Virgil, Segoe UI Emoji" font-size="20px" fill="#087f5b" text-anchor="start" style="white-space: pre;" direction="ltr">material</text></g><g stroke-linecap="round" transform="translate(10 143.95837803588813) rotate(0 86.97351096931982 28.03793335939656)"><path d="M14.02 0 M14.02 0 C57.61 3, 104.16 2.52, 159.93 0 M14.02 0 C43.95 -1.24, 74.67 0.07, 159.93 0 M159.93 0 C168.56 1.19, 173.24 1.57, 173.95 14.02 M159.93 0 C167.9 -0.63, 177.02 6.43, 173.95 14.02 M173.95 14.02 C176.08 16.28, 177.5 25.96, 173.95 42.06 M173.95 14.02 C173.27 26.61, 175.06 34.18, 173.95 42.06 M173.95 42.06 C173.52 53.03, 166.49 57.23, 159.93 56.08 M173.95 42.06 C172.99 46.99, 166.87 54.04, 159.93 56.08 M159.93 56.08 C107.6 55.01, 58.78 53.36, 14.02 56.08 M159.93 56.08 C128.03 56.21, 94.53 57.72, 14.02 56.08 M14.02 56.08 C8.14 59.58, 2.52 53.05, 0 42.06 M14.02 56.08 C8.97 57.25, 2.1 55.47, 0 42.06 M0 42.06 C-2.67 34.49, -3.97 24.43, 0 14.02 M0 42.06 C0.45 36.4, 1.05 27.6, 0 14.02 M0 14.02 C2.95 5.94, 7.72 3.02, 14.02 0 M0 14.02 C1.21 2.42, 0.75 2.2, 14.02 0" stroke="#087f5b" stroke-width="2" fill="none"></path></g><g transform="translate(44.90413646966431 295.12498875846313) rotate(0 51.5 12.5)"><text x="0" y="18" font-family="Virgil, Segoe UI Emoji" font-size="20px" fill="#087f5b" text-anchor="start" style="white-space: pre;" direction="ltr">foundation</text></g><g stroke-linecap="round" transform="translate(11.623246487214942 280.9384453390061) rotate(0 86.97351096931982 28.03793335939656)"><path d="M14.02 0 M14.02 0 C53.15 0.24, 92.23 0.25, 159.93 0 M14.02 0 C47.79 1.16, 76.97 1.93, 159.93 0 M159.93 0 C165.75 1.7, 170.49 7.8, 173.95 14.02 M159.93 0 C169.87 3.95, 173.28 4.15, 173.95 14.02 M173.95 14.02 C171.49 21.17, 176.07 26.4, 173.95 42.06 M173.95 14.02 C172.79 22.36, 174.92 30.66, 173.95 42.06 M173.95 42.06 C170.58 50.83, 170.66 58.43, 159.93 56.08 M173.95 42.06 C173.65 47.62, 166.65 57.18, 159.93 56.08 M159.93 56.08 C118.88 56.86, 77.56 55.92, 14.02 56.08 M159.93 56.08 C111.08 58.59, 60.24 58.14, 14.02 56.08 M14.02 56.08 C8.62 53.78, 0.62 47.8, 0 42.06 M14.02 56.08 C3.24 52.71, -2.28 50.41, 0 42.06 M0 42.06 C-3.68 36.36, 1.07 27.81, 0 14.02 M0 42.06 C-1.86 32.49, 0.49 20.96, 0 14.02 M0 14.02 C-1.62 1.98, 7.11 1.86, 14.02 0 M0 14.02 C3.29 7.09, 4.18 -2.6, 14.02 0" stroke="#087f5b" stroke-width="2" fill="none"></path></g><g transform="translate(87.30678432575337 433.4393698388742) rotate(0 13 12.5)"><text x="0" y="18" font-family="Virgil, Segoe UI Emoji" font-size="20px" fill="#087f5b" text-anchor="start" style="white-space: pre;" direction="ltr">UI</text></g><g stroke-linecap="round" transform="translate(10.567246858350472 418.843468378946) rotate(0 86.97351096931982 28.03793335939656)"><path d="M14.02 0 M14.02 0 C52.1 -0.68, 95.84 3.19, 159.93 0 M14.02 0 C61.59 -1.38, 110.95 -0.67, 159.93 0 M159.93 0 C169.79 3.44, 173.37 4.22, 173.95 14.02 M159.93 0 C167.91 4.07, 176.68 1.27, 173.95 14.02 M173.95 14.02 C175.33 21.3, 170.34 28.15, 173.95 42.06 M173.95 14.02 C172.57 20.9, 174.95 29.54, 173.95 42.06 M173.95 42.06 C173.68 48.11, 167 57.04, 159.93 56.08 M173.95 42.06 C173.68 50.11, 165.05 58.25, 159.93 56.08 M159.93 56.08 C105.17 61.65, 48.14 59.75, 14.02 56.08 M159.93 56.08 C105.22 56.85, 46.88 56.2, 14.02 56.08 M14.02 56.08 C3.43 53.15, -1.98 50.54, 0 42.06 M14.02 56.08 C5.06 57.69, 1.77 47.4, 0 42.06 M0 42.06 C2.84 32.63, -2.14 17.68, 0 14.02 M0 42.06 C-0.99 30.96, 1.04 23.48, 0 14.02 M0 14.02 C2.86 6.78, 4.24 -2.26, 14.02 0 M0 14.02 C3.02 7.01, 9.11 0.18, 14.02 0" stroke="#087f5b" stroke-width="2" fill="none"></path></g><g transform="translate(66.62330503132694 576.5728272571101) rotate(0 35 12.5)"><text x="0" y="18" font-family="Virgil, Segoe UI Emoji" font-size="20px" fill="#087f5b" text-anchor="start" style="white-space: pre;" direction="ltr">runtime</text></g><g stroke-linecap="round" transform="translate(13.748508221357952 561.5716208066164) rotate(0 86.97351096931982 28.03793335939656)"><path d="M14.02 0 M14.02 0 C48.05 3.04, 79.28 1.94, 159.93 0 M14.02 0 C57.32 -4.06, 98.03 -1.76, 159.93 0 M159.93 0 C166.49 1.16, 173.12 0.84, 173.95 14.02 M159.93 0 C166.87 -2.03, 176.46 0.51, 173.95 14.02 M173.95 14.02 C176.22 19.81, 170.58 23.84, 173.95 42.06 M173.95 14.02 C172.08 24.05, 175.65 33.94, 173.95 42.06 M173.95 42.06 C176.47 53.05, 173.01 57.1, 159.93 56.08 M173.95 42.06 C176.05 55.47, 168.92 59.11, 159.93 56.08 M159.93 56.08 C98.16 55.29, 40.67 54.55, 14.02 56.08 M159.93 56.08 C120.08 55.36, 80.17 57.74, 14.02 56.08 M14.02 56.08 C7.72 59.09, 1.05 49.44, 0 42.06 M14.02 56.08 C0.75 58.28, 1.46 51.29, 0 42.06 M0 42.06 C2.24 37.64, 2.48 27.07, 0 14.02 M0 42.06 C1.56 35.31, -0.13 28.21, 0 14.02 M0 14.02 C-1.31 1.23, 2.05 2.21, 14.02 0 M0 14.02 C-0.41 6.05, 0.66 2.26, 14.02 0" stroke="#087f5b" stroke-width="2" fill="none"></path></g><g stroke-linecap="round"><g transform="translate(100.40136565440065 215.26772899315813) rotate(0 -1.0060199876817535 24.36711252736262)"><path d="M-0.61 -1.56 C-1.01 6.97, -1.38 41.76, -1.4 50.3" stroke="#087f5b" stroke-width="2.5" fill="none" stroke-dasharray="8 10"></path></g><g transform="translate(100.40136565440065 215.26772899315813) rotate(0 -1.0060199876817535 24.36711252736262)"><path d="M-12.19 25.05 C-8.46 34.13, -6.53 42.36, -1.25 49.85" stroke="#087f5b" stroke-width="2.5" fill="none"></path></g><g transform="translate(100.40136565440065 215.26772899315813) rotate(0 -1.0060199876817535 24.36711252736262)"><path d="M5.3 25.18 C3.18 34.14, -0.73 42.32, -1.25 49.85" stroke="#087f5b" stroke-width="2.5" fill="none"></path></g></g><g stroke-linecap="round"><g transform="translate(97.05759948223437 349.6688903896586) rotate(0 0.6781067016032978 26.446531005523752)"><path d="M2.66 0.84 C2.17 9.12, -1.13 43.35, -1.31 52.05" stroke="#087f5b" stroke-width="2.5" fill="none" stroke-dasharray="8 10"></path></g><g transform="translate(97.05759948223437 349.6688903896586) rotate(0 0.6781067016032978 26.446531005523752)"><path d="M-7.32 26.5 C-4.21 39.37, -0.17 41.17, 2.02 52.68" stroke="#087f5b" stroke-width="2.5" fill="none"></path></g><g transform="translate(97.05759948223437 349.6688903896586) rotate(0 0.6781067016032978 26.446531005523752)"><path d="M10.14 27.6 C6.95 40.4, 4.71 41.81, 2.02 52.68" stroke="#087f5b" stroke-width="2.5" fill="none"></path></g></g><g stroke-linecap="round"><g transform="translate(99.65965752166534 490.5387194355858) rotate(0 -0.45407558656660285 25.275298758171118)"><path d="M-1.48 -2.71 C-1.03 6.61, 0.02 44.74, 0.57 53.26" stroke="#087f5b" stroke-width="2.5" fill="none" stroke-dasharray="8 10"></path></g><g transform="translate(99.65965752166534 490.5387194355858) rotate(0 -0.45407558656660285 25.275298758171118)"><path d="M-13.06 31.29 C-4.43 38.49, -9.16 37.1, 4.19 57.06" stroke="#087f5b" stroke-width="2.5" fill="none"></path></g><g transform="translate(99.65965752166534 490.5387194355858) rotate(0 -0.45407558656660285 25.275298758171118)"><path d="M4.42 30.54 C9.12 37.72, 0.49 36.5, 4.19 57.06" stroke="#087f5b" stroke-width="2.5" fill="none"></path></g></g><g stroke-linecap="round"><g transform="translate(99.55939490694334 81.68731020255314) rotate(0 -1.289347048805979 25.63465261044317)"><path d="M-1.91 1.94 C-2.37 9.84, -0.56 40.68, -0.6 49.33" stroke="#000000" stroke-width="2.5" fill="none" stroke-dasharray="8 10"></path></g><g transform="translate(99.55939490694334 81.68731020255314) rotate(0 -1.289347048805979 25.63465261044317)"><path d="M-7.25 25.76 C-8.71 32.68, 1.34 46.92, -0.38 46.79" stroke="#000000" stroke-width="2.5" fill="none"></path></g><g transform="translate(99.55939490694334 81.68731020255314) rotate(0 -1.289347048805979 25.63465261044317)"><path d="M10.24 25.27 C2.16 32.13, 5.6 46.56, -0.38 46.79" stroke="#000000" stroke-width="2.5" fill="none"></path></g></g><g transform="translate(394.2932505368201 36.89099359445987) rotate(0 37 12.5)"><text x="0" y="18" font-family="Virgil, Segoe UI Emoji" font-size="20px" fill="#087f5b" text-anchor="start" style="white-space: pre;" direction="ltr">compiler</text></g><g stroke-linecap="round" transform="translate(342.319694389486 18.088026332461027) rotate(0 86.97351096931982 34.49849490901198)"><path d="M17.25 0 M17.25 0 C51.55 -0.39, 84.1 -0.51, 156.7 0 M17.25 0 C70.32 -2.88, 127.77 -3.86, 156.7 0 M156.7 0 C171.25 1.54, 172.97 8.78, 173.95 17.25 M156.7 0 C169.42 -1.34, 169.51 3.62, 173.95 17.25 M173.95 17.25 C177.2 28.42, 175.48 29.52, 173.95 51.75 M173.95 17.25 C174.42 26.28, 173.1 31.36, 173.95 51.75 M173.95 51.75 C172.7 62.45, 168.22 72.69, 156.7 69 M173.95 51.75 C169.96 67.44, 167.19 72.35, 156.7 69 M156.7 69 C112.66 67.5, 75.04 73.4, 17.25 69 M156.7 69 C100.06 69.68, 45.84 70.99, 17.25 69 M17.25 69 C9.53 65.03, 3.9 65.41, 0 51.75 M17.25 69 C1.43 72.76, -2.15 64.71, 0 51.75 M0 51.75 C-3.45 39.1, -3.36 34.51, 0 17.25 M0 51.75 C-1.06 42.82, 1.66 30.29, 0 17.25 M0 17.25 C-2.97 3.19, 9.43 -0.21, 17.25 0 M0 17.25 C-4.4 1.33, 6.86 2.17, 17.25 0" stroke="#087f5b" stroke-width="2" fill="none"></path></g><g stroke-linecap="round"><g transform="translate(200.23769448946774 38.32778231184699) rotate(0 61.77883406270141 -0.9593729226052119)"><path d="M-1.47 -1.11 C19.15 -1.19, 104.05 -0.42, 125.03 -1.07" stroke="#000000" stroke-width="2.5" fill="none" stroke-dasharray="8 10"></path></g><g transform="translate(200.23769448946774 38.32778231184699) rotate(0 61.77883406270141 -0.9593729226052119)"><path d="M95.34 9.3 C109.84 5.11, 114 2.18, 123.12 -3.12" stroke="#000000" stroke-width="2.5" fill="none"></path></g><g transform="translate(200.23769448946774 38.32778231184699) rotate(0 61.77883406270141 -0.9593729226052119)"><path d="M95.18 -11.23 C109.65 -8.31, 113.87 -4.12, 123.12 -3.12" stroke="#000000" stroke-width="2.5" fill="none"></path></g></g><g transform="translate(217.9818529477784 10) rotate(0 33.5 10)"><text x="0" y="14" font-family="Virgil, Segoe UI Emoji" font-size="15.830853174603172px" fill="#000000" text-anchor="start" style="white-space: pre;" direction="ltr">analyzes</text></g><g stroke-linecap="round"><g transform="translate(192.37477767249527 74.64575361361398) rotate(0 66.74629874946203 -2.3253429852445606)"><path d="M2.21 -2.36 C23.95 -2.34, 109.67 -1.69, 131.28 -2.55" stroke="#087f5b" stroke-width="2.5" fill="none" stroke-dasharray="8 10"></path></g><g transform="translate(192.37477767249527 74.64575361361398) rotate(0 66.74629874946203 -2.3253429852445606)"><path d="M27.05 -9.63 C24.47 -4.91, 8.02 -6.29, 2.72 -3" stroke="#087f5b" stroke-width="2.5" fill="none"></path></g><g transform="translate(192.37477767249527 74.64575361361398) rotate(0 66.74629874946203 -2.3253429852445606)"><path d="M27 10.89 C24.82 8.83, 8.39 0.66, 2.72 -3" stroke="#087f5b" stroke-width="2.5" fill="none"></path></g></g><g transform="translate(240.01828528482906 87.06469090614013) rotate(0 46.5 20)"><text x="46.5" y="14" font-family="Virgil, Segoe UI Emoji" font-size="15.830853174603172px" fill="#087f5b" text-anchor="middle" style="white-space: pre;" direction="ltr">genereates </text><text x="46.5" y="34" font-family="Virgil, Segoe UI Emoji" font-size="15.830853174603172px" fill="#087f5b" text-anchor="middle" style="white-space: pre;" direction="ltr">code</text></g></svg>